<svg xmlns="http://www.w3.org/2000/svg" xmlns:xlink="http://www.w3.org/1999/xlink" id="Layer_1" x="0" y="0" enable-background="new 0 0 645 200" version="1.1" viewBox="0 0 645 200" xml:space="preserve"><rect width="167" height="166" x="349.5" y="19.5" fill="#6B6B6B"/><rect width="64" height="66" x="384.5" y="53" fill="none" stroke="#FFF" stroke-miterlimit="10"/><rect width="124.8" height="38.6" x="133.3" y="73.4" fill="#FFFF52"/><rect width="124.4" height="17.6" x="133.5" y="36.9" fill="#FFFF52"/><line x1="349.5" x2="516.5" y1="19" y2="186" fill="none"/><line x1="349.5" x2="516.5" y1="19.5" y2="186" fill="none" stroke="#000" stroke-miterlimit="10"/><rect width="166" height="121" x="135.5" y="19" fill="none"/><text transform="matrix(1 0 0 1 135.5 30.6963)"><tspan x="0" y="0" font-family="'TheSerif-HP5Plain'" font-size="16">background(150) </tspan><tspan x="0" y="19.2" font-family="'TheSerif-HP5Plain'" font-size="16">stroke(0) </tspan><tspan x="0" y="38.4" font-family="'TheSerif-HP5Plain'" font-size="16">line((0,0),(100,100)) </tspan><tspan x="0" y="57.6" font-family="'TheSerif-HP5Plain'" font-size="16">stroke(255) </tspan><tspan x="0" y="76.8" font-family="'TheSerif-HP5Plain'" font-size="16">no_fill()</tspan><tspan x="0" y="96" font-family="'TheSerif-HP5Plain'" font-size="16">rect((25,25),50,50)</tspan></text><line x1="129.2" x2="122" y1="47.2" y2="47.2" fill="none" stroke="#777" stroke-miterlimit="10" stroke-width="2"/><line x1="123" x2="123" y1="47.2" y2="62.8" fill="none" stroke="#777" stroke-miterlimit="10" stroke-width="2"/><line x1="129.2" x2="122" y1="89.4" y2="89.4" fill="none" stroke="#777" stroke-miterlimit="10" stroke-width="2"/><line x1="123" x2="123" y1="89.4" y2="122.5" fill="none" stroke="#777" stroke-miterlimit="10" stroke-width="2"/><line x1="129.2" x2="122" y1="62.2" y2="62.2" fill="none" stroke="#777" stroke-miterlimit="10" stroke-width="2"/><line x1="129.2" x2="122" y1="121.8" y2="121.8" fill="none" stroke="#777" stroke-miterlimit="10" stroke-width="2"/></svg>