<svg xmlns="http://www.w3.org/2000/svg" xmlns:xlink="http://www.w3.org/1999/xlink" id="Layer_1" x="0" y="0" enable-background="new -16.5 314.5 645 163" version="1.1" viewBox="-16.5 314.5 645 163" xml:space="preserve"><circle cx="27.4" cy="434.6" r="5.5"/><g><path fill="#999" d="M118.6,373.7c0-0.5,0-1.3,0.1-1.8l0,0c-0.5,1.2-1.5,2-3,2c-2,0-2.6-1.2-2.6-2.7v-4.8 c-0.4-0.1-1-0.1-1.4-0.2v-0.9c0.8-0.1,2-0.2,3-0.1v5.5c0,1.2,0.3,1.9,1.5,1.9c1.4,0,2.4-1.4,2.4-3.3v-2.9c-0.4-0.1-0.9-0.1-1.4-0.2 v-0.9c0.8-0.1,2-0.2,2.9-0.1v7.3c0.4,0.1,1,0.1,1.4,0.2v0.9C120.7,373.7,119.5,373.8,118.6,373.7z"/></g><g><path d="M229.4,380.9v-1.4h5.4v1.4H229.4z"/><path d="M244.8,383.9v2.9h-1.5v-2.9H238l-0.1-1.3l4.8-7.6h2.2v7.5h2v1.4L244.8,383.9L244.8,383.9z M243.3,376.5L243.3,376.5 l-3.9,6.1c1,0,3.2,0,3.9,0V376.5z"/></g><g><path d="M404.4,410.5v-1.4h5.4v1.4H404.4z"/><path d="M413.7,415v-1.3l2.5-2.2c2.2-1.8,2.7-2.6,2.7-3.7c0-1.1-0.7-1.9-2.1-1.9c-1,0-1.9,0.5-2.5,0.9l-0.3-1.4 c0.9-0.6,1.9-0.9,3.1-0.9c2.3,0,3.5,1.3,3.5,3.1c0,1.5-0.8,2.6-2.7,4.2l-2.1,1.8h-0.1c0.8-0.1,2.7-0.1,5.2-0.1v1.5L413.7,415 L413.7,415z"/></g><polyline fill="#FFF" stroke="#999" stroke-width="1.3" points="120.2 353.2 124.4 357.4 120.2 361.6"/><line x1="124.4" x2="108.5" y1="357.4" y2="357.4" fill="none" stroke="#999" stroke-width="1.3"/><g><path d="M122,460.2c-2.4,0-3.8-1.2-3.8-2.9c0-1,0.5-2.1,2.4-3.2c-1.5-0.8-2.1-1.8-2.1-3c0-1.8,1.5-3,3.7-3s3.5,1.1,3.5,2.7 c0,1.1-0.7,2-2.3,3.1c2,1,2.7,2,2.7,3.2C126.1,459,124.3,460.2,122,460.2z M122,454.7c-1.4,0.8-2.1,1.6-2.1,2.5 c0,1,0.9,1.7,2.3,1.7c1.3,0,2.3-0.6,2.3-1.7C124.5,456.1,123.7,455.5,122,454.7z M122.1,449.3c-1.3,0-2,0.7-2,1.7 c0,0.8,0.6,1.5,2,2.3c1.5-0.9,2-1.6,2-2.4C124.2,449.9,123.5,449.3,122.1,449.3z"/></g><g><path d="M348.3,458.4v2.9h-1.5v-2.9h-5.3l-0.1-1.3l4.8-7.6h2.2v7.5h2v1.4L348.3,458.4L348.3,458.4z M346.8,451L346.8,451l-3.9,6.1 c1,0,3.2,0,3.9,0V451z"/></g><line x1="204.1" x2="38.1" y1="342.4" y2="427.7" fill="none" stroke="#999" stroke-width="1.3"/><polyline fill="none" stroke="#999" stroke-width="1.3" points="196.7 339.8 204.9 341.6 203.1 349.8"/><g><path fill="#999" d="M492.4,399.4l-2.3,7.4h-1.8l-1.7-5c-0.2-0.5-0.3-1.1-0.5-1.7l0,0c-0.2,0.8-0.4,1.4-0.6,2.2l-1.4,4.6h-1.8 l-2.2-7.4c-0.4,0-0.8-0.1-1.1-0.2v-0.9h3.9v0.9c-0.4,0.1-0.8,0.2-1.2,0.2l1,3.8c0.2,0.7,0.4,1.4,0.5,1.9l0,0 c0.2-0.7,0.4-1.4,0.6-2.1l1.5-4.8h1.6l1.5,4.8c0.3,1,0.5,1.5,0.6,2.1l0,0c0.2-0.6,0.3-1.1,0.5-1.9l1.1-3.9c-0.4,0-0.8-0.1-1.2-0.2 v-0.9h3.8v0.9C493.2,399.3,492.8,399.4,492.4,399.4z"/></g><polyline fill="#FFF" stroke="#999" stroke-width="1.3" points="489.6 386.4 493.8 390.6 489.6 394.8"/><line x1="493.8" x2="477.9" y1="390.6" y2="390.6" fill="none" stroke="#999" stroke-width="1.3"/><g><path fill="#999" d="M540.3,407.2c0-0.5,0-1.3,0.1-1.8l0,0c-0.5,1.2-1.5,2-3,2c-2,0-2.6-1.2-2.6-2.7v-4.8 c-0.4-0.1-1-0.1-1.4-0.2v-0.9c0.8-0.1,2-0.2,3-0.1v5.5c0,1.2,0.3,1.9,1.5,1.9c1.4,0,2.4-1.4,2.4-3.3v-2.9c-0.4-0.1-0.9-0.1-1.4-0.2 v-0.9c0.8-0.1,2-0.2,2.9-0.1v7.3c0.4,0.1,1,0.1,1.4,0.2v0.9C542.5,407.2,541.2,407.2,540.3,407.2z"/></g><polyline fill="#FFF" stroke="#999" stroke-width="1.3" points="542 386.7 546.1 390.9 542 395.1"/><line x1="546.1" x2="530.2" y1="390.9" y2="390.9" fill="none" stroke="#999" stroke-width="1.3"/><g><path d="M577.2,407.2v-1.3l2.5-2.2c2.2-1.8,2.7-2.6,2.7-3.7c0-1.1-0.7-1.9-2.1-1.9c-1,0-1.9,0.5-2.5,0.9l-0.3-1.4 c0.9-0.6,1.9-0.9,3.1-0.9c2.3,0,3.5,1.3,3.5,3.1c0,1.5-0.8,2.6-2.7,4.2l-2.1,1.8h-0.1c0.8-0.1,2.7-0.1,5.2-0.1v1.5L577.2,407.2 L577.2,407.2z"/></g><text font-family="'ArialMT'" font-size="17.212" transform="matrix(1 0 0 1 509.5822 407.872)">=</text><text font-family="'ArialMT'" font-size="17.212" transform="matrix(1 0 0 1 556.4465 407.872)">/</text><circle cx="215.6" cy="336.1" r="5.5"/><line x1="29.3" x2="220.7" y1="434.6" y2="434.6" fill="none" stroke="#000" stroke-dasharray="20 5" stroke-width="1.3"/><line x1="215.8" x2="215.8" y1="337.1" y2="432.8" fill="none" stroke="#000" stroke-dasharray="20 5" stroke-width="1.3"/><line x1="384.3" x2="303.6" y1="387.5" y2="429" fill="none" stroke="#999" stroke-width="1.3"/><line x1="299.3" x2="394.4" y1="434.9" y2="434.9" fill="none" stroke="#000" stroke-dasharray="20 5" stroke-width="1.3"/><line x1="391.5" x2="391.5" y1="388.4" y2="436.4" fill="none" stroke="#000" stroke-dasharray="20 5" stroke-width="1.3"/><polyline fill="none" stroke="#999" stroke-width="1.3" points="376.5 385.8 384.6 387.5 382.9 395.8"/><g><path fill="#999" d="M341.3,389.9l-2.3,7.4h-1.8l-1.7-5c-0.2-0.5-0.3-1.1-0.5-1.7l0,0c-0.2,0.8-0.4,1.4-0.6,2.2l-1.4,4.6h-1.8 L329,390c-0.4,0-0.8-0.1-1.1-0.2v-0.9h3.9v0.9c-0.4,0.1-0.8,0.2-1.2,0.2l1,3.8c0.2,0.7,0.4,1.4,0.5,1.9l0,0 c0.2-0.7,0.4-1.4,0.6-2.1l1.5-4.8h1.6l1.5,4.8c0.3,1,0.5,1.5,0.6,2.1l0,0c0.2-0.6,0.3-1.1,0.5-1.9l1.1-3.9c-0.4,0-0.8-0.1-1.2-0.2 v-0.9h3.8v0.9C342.1,389.8,341.7,389.9,341.3,389.9z"/></g><polyline fill="#FFF" stroke="#999" stroke-width="1.3" points="338.5 376.8 342.7 381 338.5 385.3"/><line x1="342.7" x2="326.8" y1="381" y2="381" fill="none" stroke="#999" stroke-width="1.3"/><circle cx="295.7" cy="434.2" r="5.5"/><circle cx="392.4" cy="383.6" r="5.5"/></svg>