<svg xmlns="http://www.w3.org/2000/svg" xmlns:xlink="http://www.w3.org/1999/xlink" id="Layer_1" x="0" y="0" enable-background="new 0 0 1082 151" version="1.1" viewBox="0 0 1082 151" xml:space="preserve"><switch><g><g><rect width="96.9" height="50.9" x="104.2" y="7.6" fill="#CCC" stroke="#FFF"/></g><g><rect width="96.9" height="50.9" x="201.1" y="7.6" fill="#CCC" stroke="#FFF"/></g><g><rect width="96.9" height="50.9" x="298.1" y="7.6" fill="#CCC" stroke="#FFF"/></g><g><rect width="96.9" height="50.9" x="395" y="7.6" fill="#CCC" stroke="#FFF"/></g><g><rect width="96.9" height="50.9" x="491.9" y="7.6" fill="#CCC" stroke="#FFF"/></g><g><rect width="96.9" height="50.9" x="588.9" y="7.6" fill="#CCC" stroke="#FFF"/></g><g><rect width="96.9" height="50.9" x="685.8" y="7.6" fill="#CCC" stroke="#FFF"/></g><g><rect width="96.9" height="50.9" x="782.8" y="7.6" fill="#CCC" stroke="#FFF"/></g><g><rect width="96.9" height="50.9" x="879.7" y="7.6" fill="#CCC" stroke="#FFF"/></g><g><rect width="96.9" height="50.9" x="976.6" y="7.6" fill="#CCC" stroke="#FFF"/></g><text font-family="'TheSansMono-W3Light'" font-size="24.765" transform="matrix(1 0 0 1 117.7969 40.1826)">50</text><text font-family="'TheSansMono-W3Light'" font-size="24.765" transform="matrix(1 0 0 1 214.8691 40.1826)">61</text><text font-family="'TheSansMono-W3Light'" font-size="24.765" transform="matrix(1 0 0 1 311.9414 40.1826)">83</text><text font-family="'TheSansMono-W3Light'" font-size="24.765" transform="matrix(1 0 0 1 409.0146 40.1826)">69</text><text font-family="'TheSansMono-W3Light'" font-size="24.765" transform="matrix(1 0 0 1 506.085 40.1826)">71</text><text font-family="'TheSansMono-W3Light'" font-size="24.765" transform="matrix(1 0 0 1 603.1553 40.1826)">50</text><text font-family="'TheSansMono-W3Light'" font-size="24.765" transform="matrix(1 0 0 1 700.2295 40.1826)">29</text><text font-family="'TheSansMono-W3Light'" font-size="24.765" transform="matrix(1 0 0 1 797.2998 40.1826)">31</text><text font-family="'TheSansMono-W3Light'" font-size="24.765" transform="matrix(1 0 0 1 894.3701 40.1826)">17</text><text font-family="'TheSansMono-W3Light'" font-size="24.765" transform="matrix(1 0 0 1 991.4443 40.1826)">39</text><text font-family="'TheSansMono-W3Light'" font-size="24.765" transform="matrix(1 0 0 1 104.1855 143.4932)">[0]</text><text font-family="'TheSansMono-W3Light'" font-size="24.765" transform="matrix(1 0 0 1 51.1172 40.1826)">[0]</text><text font-family="'TheSansMono-W3Light'" font-size="24.765" transform="matrix(1 0 0 1 51.1172 91.1318)">[1]</text><g><rect width="96.9" height="50.9" x="104.2" y="58.6" fill="#CCC" stroke="#FFF"/></g><g><rect width="96.9" height="50.9" x="201.1" y="58.6" fill="#CCC" stroke="#FFF"/></g><g><rect width="96.9" height="50.9" x="298.1" y="58.6" fill="#CCC" stroke="#FFF"/></g><g><rect width="96.9" height="50.9" x="395" y="58.6" fill="#CCC" stroke="#FFF"/></g><g><rect width="96.9" height="50.9" x="491.9" y="58.6" fill="#CCC" stroke="#FFF"/></g><g><rect width="96.9" height="50.9" x="588.9" y="58.6" fill="#CCC" stroke="#FFF"/></g><g><rect width="96.9" height="50.9" x="685.8" y="58.6" fill="#CCC" stroke="#FFF"/></g><g><rect width="96.9" height="50.9" x="782.8" y="58.6" fill="#CCC" stroke="#FFF"/></g><g><rect width="96.9" height="50.9" x="879.7" y="58.6" fill="#CCC" stroke="#FFF"/></g><g><rect width="96.9" height="50.9" x="976.6" y="58.6" fill="#CCC" stroke="#FFF"/></g><text font-family="'TheSansMono-W3Light'" font-size="24.765" transform="matrix(1 0 0 1 201.1211 143.4932)">[1]</text><text font-family="'TheSansMono-W3Light'" font-size="24.765" transform="matrix(1 0 0 1 298.0586 143.4932)">[2]</text><text font-family="'TheSansMono-W3Light'" font-size="24.765" transform="matrix(1 0 0 1 395.0029 143.4932)">[3]</text><text font-family="'TheSansMono-W3Light'" font-size="24.765" transform="matrix(1 0 0 1 491.9365 143.4932)">[4]</text><text font-family="'TheSansMono-W3Light'" font-size="24.765" transform="matrix(1 0 0 1 588.8779 143.4932)">[5]</text><text font-family="'TheSansMono-W3Light'" font-size="24.765" transform="matrix(1 0 0 1 685.8154 143.4932)">[6]</text><text font-family="'TheSansMono-W3Light'" font-size="24.765" transform="matrix(1 0 0 1 782.7568 143.4932)">[7]</text><text font-family="'TheSansMono-W3Light'" font-size="24.765" transform="matrix(1 0 0 1 879.6982 143.4932)">[8]</text><text font-family="'TheSansMono-W3Light'" font-size="24.765" transform="matrix(1 0 0 1 976.6279 143.4932)">[9]</text><text font-family="'TheSansMono-W3Light'" font-size="24.765" transform="matrix(1 0 0 1 117.7969 91.1279)">0</text><text font-family="'TheSansMono-W3Light'" font-size="24.765" transform="matrix(1 0 0 1 214.8691 91.1279)">204</text><text font-family="'TheSansMono-W3Light'" font-size="24.765" transform="matrix(1 0 0 1 311.9414 91.1279)">51</text><text font-family="'TheSansMono-W3Light'" font-size="24.765" transform="matrix(1 0 0 1 409.0146 91.1279)">102</text><text font-family="'TheSansMono-W3Light'" font-size="24.765" transform="matrix(1 0 0 1 506.085 91.1279)">0</text><text font-family="'TheSansMono-W3Light'" font-size="24.765" transform="matrix(1 0 0 1 603.1553 91.1279)">153</text><text font-family="'TheSansMono-W3Light'" font-size="24.765" transform="matrix(1 0 0 1 700.2295 91.1279)">0</text><text font-family="'TheSansMono-W3Light'" font-size="24.765" transform="matrix(1 0 0 1 797.2998 91.1279)">51</text><text font-family="'TheSansMono-W3Light'" font-size="24.765" transform="matrix(1 0 0 1 894.3701 91.1279)">102</text><text font-family="'TheSansMono-W3Light'" font-size="24.765" transform="matrix(1 0 0 1 991.4443 91.1279)">204</text><text font-family="'TheSansMono-W3Light'" font-size="30.072" transform="matrix(1 0 0 1 6.1445 40.1826)">x</text></g></switch></svg>