<svg xmlns="http://www.w3.org/2000/svg" xmlns:xlink="http://www.w3.org/1999/xlink" id="Layer_1" x="0" y="0" enable-background="new 0 0 1071 106" version="1.1" viewBox="0 0 1071 106" xml:space="preserve"><switch><g><text font-family="'TheSansMono-W3Light'" font-size="25.916" transform="matrix(1 0 0 1 48.9883 96.2427)">[0]</text><g><rect width="101.4" height="53.3" x="49" y="7.4" fill="#CCC" stroke="#FFF"/></g><g><rect width="101.4" height="53.3" x="150.4" y="7.4" fill="#CCC" stroke="#FFF"/></g><g><rect width="101.4" height="53.3" x="251.9" y="7.4" fill="#CCC" stroke="#FFF"/></g><g><rect width="101.4" height="53.3" x="353.3" y="7.4" fill="#CCC" stroke="#FFF"/></g><g><rect width="101.4" height="53.3" x="454.8" y="7.4" fill="#CCC" stroke="#FFF"/></g><g><rect width="101.4" height="53.3" x="556.2" y="7.4" fill="#CCC" stroke="#FFF"/></g><g><rect width="101.4" height="53.3" x="657.6" y="7.4" fill="#CCC" stroke="#FFF"/></g><g><rect width="101.4" height="53.3" x="759.1" y="7.4" fill="#CCC" stroke="#FFF"/></g><g><rect width="101.4" height="53.3" x="860.5" y="7.4" fill="#CCC" stroke="#FFF"/></g><g><rect width="101.4" height="53.3" x="962" y="7.4" fill="#CCC" stroke="#FFF"/></g><text font-family="'TheSansMono-W3Light'" font-size="25.916" transform="matrix(1 0 0 1 150.4277 96.2427)">[1]</text><text font-family="'TheSansMono-W3Light'" font-size="25.916" transform="matrix(1 0 0 1 251.873 96.2427)">[2]</text><text font-family="'TheSansMono-W3Light'" font-size="25.916" transform="matrix(1 0 0 1 353.3203 96.2427)">[3]</text><text font-family="'TheSansMono-W3Light'" font-size="25.916" transform="matrix(1 0 0 1 454.7568 96.2427)">[4]</text><text font-family="'TheSansMono-W3Light'" font-size="25.916" transform="matrix(1 0 0 1 556.2041 96.2427)">[5]</text><text font-family="'TheSansMono-W3Light'" font-size="25.916" transform="matrix(1 0 0 1 657.6455 96.2427)">[6]</text><text font-family="'TheSansMono-W3Light'" font-size="25.916" transform="matrix(1 0 0 1 759.0908 96.2427)">[7]</text><text font-family="'TheSansMono-W3Light'" font-size="25.916" transform="matrix(1 0 0 1 860.5381 96.2427)">[8]</text><text font-family="'TheSansMono-W3Light'" font-size="25.916" transform="matrix(1 0 0 1 961.9756 96.2427)">[9]</text><text font-family="'TheSansMono-W3Light'" font-size="25.916" transform="matrix(1 0 0 1 63.2344 41.4497)">50</text><text font-family="'TheSansMono-W3Light'" font-size="25.916" transform="matrix(1 0 0 1 164.8174 41.4497)">61</text><text font-family="'TheSansMono-W3Light'" font-size="25.916" transform="matrix(1 0 0 1 266.3994 41.4497)">83</text><text font-family="'TheSansMono-W3Light'" font-size="25.916" transform="matrix(1 0 0 1 367.9844 41.4497)">69</text><text font-family="'TheSansMono-W3Light'" font-size="25.916" transform="matrix(1 0 0 1 469.5635 41.4497)">71</text><text font-family="'TheSansMono-W3Light'" font-size="25.916" transform="matrix(1 0 0 1 571.1455 41.4497)">50</text><text font-family="'TheSansMono-W3Light'" font-size="25.916" transform="matrix(1 0 0 1 672.7295 41.4497)">29</text><text font-family="'TheSansMono-W3Light'" font-size="25.916" transform="matrix(1 0 0 1 774.3154 41.4497)">31</text><text font-family="'TheSansMono-W3Light'" font-size="25.916" transform="matrix(1 0 0 1 875.8975 41.4497)">17</text><text font-family="'TheSansMono-W3Light'" font-size="25.916" transform="matrix(1 0 0 1 977.4814 41.4497)">39</text><text font-family="'TheSansMono-W3Light'" font-size="31.47" transform="matrix(1 0 0 1 6.8613 41.4497)">x</text></g></switch></svg>