<svg xmlns="http://www.w3.org/2000/svg" xmlns:xlink="http://www.w3.org/1999/xlink" id="Layer_1" x="0" y="0" enable-background="new 0 0 1114 104" version="1.1" viewBox="0 0 1114 104" xml:space="preserve"><switch><g><text font-family="'TheSansMono-W3Light'" font-size="24.998" transform="matrix(1 0 0 1 125.2998 94.8833)">[0]</text><g><rect width="195.7" height="51.4" x="125.3" y="9.2" fill="#CCC" stroke="#FFF"/></g><g><rect width="195.7" height="51.4" x="321" y="9.2" fill="#CCC" stroke="#FFF"/></g><g><rect width="195.7" height="51.4" x="516.7" y="9.2" fill="#CCC" stroke="#FFF"/></g><g><rect width="195.7" height="51.4" x="712.4" y="9.2" fill="#CCC" stroke="#FFF"/></g><g><rect width="195.7" height="51.4" x="908.1" y="9.2" fill="#CCC" stroke="#FFF"/></g><text font-family="'TheSansMono-W3Light'" font-size="24.998" transform="matrix(1 0 0 1 320.9971 94.8833)">[1]</text><text font-family="'TheSansMono-W3Light'" font-size="24.998" transform="matrix(1 0 0 1 516.6992 94.8833)">[2]</text><text font-family="'TheSansMono-W3Light'" font-size="24.998" transform="matrix(1 0 0 1 712.4023 94.8833)">[3]</text><text font-family="'TheSansMono-W3Light'" font-size="24.998" transform="matrix(1 0 0 1 908.0977 94.8833)">[4]</text><text font-family="'TheSansMono-W3Light'" font-size="24.998" transform="matrix(1 0 0 1 151.0127 42.0239)">1919</text><text font-family="'TheSansMono-W3Light'" font-size="24.998" transform="matrix(1 0 0 1 346.7119 42.0239)">1940</text><text font-family="'TheSansMono-W3Light'" font-size="24.998" transform="matrix(1 0 0 1 542.4102 42.0239)">1975</text><text font-family="'TheSansMono-W3Light'" font-size="24.998" transform="matrix(1 0 0 1 738.1113 42.0239)">1976</text><text font-family="'TheSansMono-W3Light'" font-size="24.998" transform="matrix(1 0 0 1 933.8145 42.0239)">1990</text><text font-family="'TheSansMono-W3Light'" font-size="30.355" transform="matrix(1 0 0 1 6.7334 42.0239)">dates</text></g></switch></svg>