<svg xmlns="http://www.w3.org/2000/svg" xmlns:xlink="http://www.w3.org/1999/xlink" id="Layer_1" x="0" y="0" enable-background="new 0 0 640 838.5" version="1.1" viewBox="0 0 640 838.5" xml:space="preserve"><rect width="16.5" height="19.6" x="81.5" y="162.4" fill="#FF0" opacity=".5"/><rect width="16.5" height="19.6" x="197.5" y="143.4" fill="#FF0" opacity=".5"/><rect width="16.5" height="19.6" x="198.5" y="178.4" fill="#FF0" opacity=".5"/><polygon fill="#FFF" stroke="#999" stroke-width="1.3" points="476.5 726.5 83.5 726.5 476.5 333.5"/><rect width="45.5" height="45.5" x="431" y="681" fill="#FFF" stroke="#999" stroke-width="1.3"/><path fill="none" stroke="#999" stroke-width="1.3" d="M119,690c9,9,14.5,21.3,14.5,35c0,0.5,0,1,0,1.5"/><text font-family="'TheSerif-HP5Plain'" font-size="48" transform="matrix(1 0 0 1 79.5 54.5)">soh-cah-toa</text><line x1="81" x2="159.5" y1="65.5" y2="65.5" fill="none" stroke="#999" stroke-width="5"/><line x1="172" x2="250.5" y1="65.5" y2="65.5" fill="none" stroke="#999" stroke-width="5"/><line x1="265.5" x2="334.5" y1="65.5" y2="65.5" fill="none" stroke="#999" stroke-width="5"/><text fill="#999" font-family="'TheSerif-HP5Plain'" font-size="18" transform="matrix(1 0 0 1 103.5 87.5)">sine</text><text fill="#999" font-family="'TheSerif-HP5Plain'" font-size="18" transform="matrix(1 0 0 1 186.5 87.5)">cosine</text><text fill="#999" font-family="'TheSerif-HP5Plain'" font-size="18" transform="matrix(1 0 0 1 267.5 87.5)">tangent</text><text transform="matrix(1 0 0 1 86.5 177.5)"><tspan x="0" y="0" font-family="'TheSerif-HP5Plain'" font-size="18">s ine(</tspan><tspan x="43.1" y="0" font-family="'MyriadPro-Regular'" font-size="18">θ</tspan><tspan x="52.7" y="0" font-family="'TheSerif-HP5Plain'" font-size="18">) =</tspan></text><text transform="matrix(1 0 0 1 201.5 158.5)"><tspan x="0" y="0" font-family="'TheSerif-HP5Plain'" font-size="18">o pposite</tspan><tspan x="0" y="36" font-family="'TheSerif-HP5Plain'" font-size="18">h ypotenuse</tspan></text><line x1="197" x2="303" y1="172.5" y2="172.5" fill="none" stroke="#999" stroke-width="1.3"/><rect width="16.5" height="19.6" x="81.5" y="252.4" fill="#FF0" opacity=".5"/><rect width="16.5" height="19.6" x="197.5" y="233.4" fill="#FF0" opacity=".5"/><rect width="16.5" height="19.6" x="198.5" y="268.4" fill="#FF0" opacity=".5"/><text transform="matrix(1 0 0 1 86.5 267.5)"><tspan x="0" y="0" font-family="'TheSerif-HP5Plain'" font-size="18">c osine(</tspan><tspan x="61" y="0" font-family="'MyriadPro-Regular'" font-size="18">θ</tspan><tspan x="70.6" y="0" font-family="'TheSerif-HP5Plain'" font-size="18">) =</tspan></text><text transform="matrix(1 0 0 1 201.5 248.5)"><tspan x="0" y="0" font-family="'TheSerif-HP5Plain'" font-size="18">a djacent</tspan><tspan x="0" y="36" font-family="'TheSerif-HP5Plain'" font-size="18">h ypotenuse</tspan></text><line x1="197" x2="303" y1="262.5" y2="262.5" fill="none" stroke="#999" stroke-width="1.3"/><rect width="16.5" height="19.6" x="351.5" y="162.4" fill="#FF0" opacity=".5"/><rect width="16.5" height="19.6" x="467.5" y="143.4" fill="#FF0" opacity=".5"/><rect width="16.5" height="19.6" x="468.5" y="178.4" fill="#FF0" opacity=".5"/><text transform="matrix(1 0 0 1 356.5 177.5)"><tspan x="0" y="0" font-family="'TheSerif-HP5Plain'" font-size="18">t angent(</tspan><tspan x="73.7" y="0" font-family="'MyriadPro-Regular'" font-size="18">θ</tspan><tspan x="83.3" y="0" font-family="'TheSerif-HP5Plain'" font-size="18">) =</tspan></text><text transform="matrix(1 0 0 1 471.5 158.5)"><tspan x="0" y="0" font-family="'TheSerif-HP5Plain'" font-size="18">o pposite</tspan><tspan x="0" y="36" font-family="'TheSerif-HP5Plain'" font-size="18">a djacent</tspan></text><line x1="467" x2="573" y1="172.5" y2="172.5" fill="none" stroke="#999" stroke-width="1.3"/><text transform="matrix(1 0 0 1 356.5 267.5)"><tspan x="0" y="0" font-family="'TheSerif-HP5Plain'" font-size="18">tangent(</tspan><tspan x="69.7" y="0" font-family="'MyriadPro-Regular'" font-size="18">θ</tspan><tspan x="79.3" y="0" font-family="'TheSerif-HP5Plain'" font-size="18">) =</tspan></text><text transform="matrix(1 0 0 1 471.5 248.5)"><tspan x="0" y="0" font-family="'TheSerif-HP5Plain'" font-size="18">sine(</tspan><tspan x="39.2" y="0" font-family="'MyriadPro-Regular'" font-size="18">θ</tspan><tspan x="48.8" y="0" font-family="'TheSerif-HP5Plain'" font-size="18">)</tspan><tspan x="0" y="36" font-family="'TheSerif-HP5Plain'" font-size="18">cosine(</tspan><tspan x="57.1" y="36" font-family="'MyriadPro-Regular'" font-size="18">θ</tspan><tspan x="66.7" y="36" font-family="'TheSerif-HP5Plain'" font-size="18">)</tspan></text><line x1="467" x2="573" y1="262.5" y2="262.5" fill="none" stroke="#999" stroke-width="1.3"/><text transform="matrix(1 0 0 1 207.019 508.5)"><tspan x="0" y="0" font-family="'TheSerif-HP5Plain'" font-size="18">h</tspan><tspan x="-48.1" y="21.6" fill="#999" font-family="'TheSerif-HP5Plain'" font-size="18">(hypotenuse)</tspan></text><text transform="matrix(1 0 0 1 287.7827 757.5)"><tspan x="0" y="0" font-family="'TheSerif-HP5Plain'" font-size="18">a</tspan><tspan x="-35.5" y="21.6" fill="#999" font-family="'TheSerif-HP5Plain'" font-size="18">(adjacent)</tspan></text><text transform="matrix(1 0 0 1 533.666 548.5)"><tspan x="0" y="0" font-family="'TheSerif-HP5Plain'" font-size="18">o</tspan><tspan x="-35.4" y="21.6" fill="#999" font-family="'TheSerif-HP5Plain'" font-size="18">(opposite)</tspan></text><text font-family="'MyriadPro-Regular'" font-size="18" transform="matrix(1 0 0 1 109.5 720.5)">θ</text></svg>