<svg xmlns="http://www.w3.org/2000/svg" xmlns:xlink="http://www.w3.org/1999/xlink" id="Layer_1" x="0" y="0" enable-background="new 0 52 612 700" version="1.1" viewBox="0 52 612 700" xml:space="preserve"><line x1="292.3" x2="447" y1="436.8" y2="282" fill="none" stroke="#000" stroke-width="1.3"/><polyline fill="#FFF" stroke="#999" stroke-width="1.3" points="429.2 436.8 429.2 418.9 447 418.9"/><path fill="none" stroke="#000" stroke-width="1.3" d="M306.3,422.4c3.5,3.5,5.7,8.4,5.7,13.8c0,0.2,0,0.4,0,0.6"/><text font-family="'MyriadPro-Regular'" font-size="17.002" transform="matrix(1 0 0 1 316.8623 431.1846)">θ</text><path fill="none" stroke="#999" stroke-width="1.3" d="M511.4,436.9c0,120.5-97.7,218.2-218.2,218.2S75.1,557.4,75.1,436.9	s97.7-218.2,218.2-218.2c60,0,114.4,24.3,153.8,63.5"/><path fill="none" stroke="#000" stroke-width="1.3" d="M447,282.1c39.8,39.5,64.4,94.3,64.4,154.7"/><line x1="293.2" x2="293.2" y1="218.7" y2="654.9" fill="none" stroke="#000" stroke-width="1.3"/><line x1="75.2" x2="511.3" y1="436.8" y2="436.8" fill="none" stroke="#000" stroke-width="1.3"/><text font-family="'TheSerif-HP5Plain'" font-size="17.002" transform="matrix(1 0 0 1 17.4419 111.9287)">Unit Circle:</text><line x1="447" x2="447" y1="282" y2="436.8" fill="none" stroke="#999" stroke-dasharray="4 4" stroke-width="1.3"/><text fill="#999" font-family="'TheSerif-HP5Plain'" font-size="17.002" transform="matrix(1 0 0 1 283.8032 204.4941)">90°</text><text fill="#999" font-family="'TheSerif-HP5Plain'" font-size="17.002" transform="matrix(1 0 0 1 521.8281 439.6855)">0°</text><text fill="#999" font-family="'TheSerif-HP5Plain'" font-size="17.002" transform="matrix(1 0 0 1 278.1362 678.6553)">270°</text><g><text fill="#999" font-family="'TheSerif-HP5Plain'" font-size="17.002" transform="matrix(1 0 0 1 38.2222 439.6855)">180°</text></g><circle cx="447.2" cy="282.2" r="4.6"/><text font-family="'TheSansMono-W3Light'" font-size="17.002" transform="matrix(1 0 0 1 459.4883 281.9463)">p(r,</text><text font-family="'MyriadPro-Regular'" font-size="17.002" transform="matrix(1 0 0 1 500.293 281.9463)">θ</text><text font-family="'TheSansMono-W3Light'" font-size="17.002" transform="matrix(1 0 0 1 509.3604 281.9463)">)</text><text font-family="'TheSerif-HP5Plain'" font-size="17.002" transform="matrix(1 0 0 1 334.3096 331.063)">r</text><text fill="#999" font-family="'TheSerif-HP5Plain'" font-size="17.002" transform="matrix(1 0 0 1 308.2402 351.4648)">(radius)</text><text font-family="'TheSerif-HP5Plain'" font-size="17.002" transform="matrix(1 0 0 1 543.625 336.73)">s</text><text fill="#999" font-family="'TheSerif-HP5Plain'" font-size="17.002" transform="matrix(1 0 0 1 503.5762 357.1323)">(arc length)</text><text font-family="'TheSerif-HP5Plain'" font-size="17.002" transform="matrix(1 0 0 1 544.8223 439.6855)">2π</text><text font-family="'TheSerif-HP5Plain'" font-size="17.002" transform="matrix(1 0 0 1 18.6641 439.6855)">π</text><text font-family="'TheSerif-HP5Plain'" font-size="17.002" transform="matrix(1 0 0 1 282.2393 702.2686)">3π</text><text font-family="'TheSerif-HP5Plain'" font-size="17.002" transform="matrix(1 0 0 1 287.623 722.6709)">2</text><line x1="281.9" x2="304.6" y1="707" y2="707" fill="none" stroke="#000" stroke-width="1.3"/><text font-family="'TheSerif-HP5Plain'" font-size="17.002" transform="matrix(1 0 0 1 288.8037 160.1006)">π</text><text font-family="'TheSerif-HP5Plain'" font-size="17.002" transform="matrix(1 0 0 1 289.5596 180.5024)">2</text><line x1="282.9" x2="305.5" y1="164.8" y2="164.8" fill="none" stroke="#000" stroke-width="1.3"/><circle cx="293.2" cy="436.9" r="4.6"/><text font-family="'TheSerif-HP5Plain'" font-size="17.002" transform="matrix(1 0 0 1 241.2988 454.7979)">origin</text></svg>